<svg id="Capa_1" data-name="Capa 1" xmlns="http://www.w3.org/2000/svg" viewBox="0 0 809.7 462.62"><defs><style>.cls-1{fill:#666;}.cls-2{fill:#f2f2f2;}.cls-3{fill:#fc6c17;}.cls-4{fill:#e6e6e6;}.cls-5{fill:#3f3d56;}.cls-6{fill:#f6e168;}.cls-7{fill:#ffb8b8;}.cls-8{fill:#2f2e41;}.cls-9{fill:#fff;}.cls-10{fill:#ffb6b6;}.cls-11{fill:#6c63ff;}.cls-12{fill:#cacaca;}</style></defs><title>work</title><path class="cls-1" d="M133.1,210.3V80.3a7,7,0,1,1,14,0v130a7,7,0,0,1-14,0Z" transform="translate(0 0.02)"/><path class="cls-1" d="M116.3,210.3V80.3a7,7,0,0,1,14,0v130a7,7,0,0,1-14,0Z" transform="translate(0 0.02)"/><path class="cls-1" d="M99.6,210.3V80.3a7,7,0,1,1,14,0v130a7,7,0,0,1-14,0Z" transform="translate(0 0.02)"/><path class="cls-1" d="M732,418a26.29,26.29,0,0,1-8.3-1.4l-.4-.1.2-.9c-4.8-9.6-3.1-22.8,4.3-33.6,6.7-9.8,16.8-17,25.8-23.3a6.93,6.93,0,0,1,9.7,1.7,6.75,6.75,0,0,1,1.1,5.3l-3.2,16.4c-2.3,11.9-5.1,23.1-13.2,30.1A25.35,25.35,0,0,1,732,418Z" transform="translate(0 0.02)"/><path class="cls-1" d="M753,446.4a18.64,18.64,0,0,1-15.6-8.6l-.2-.4.6-.5c1.4-7.8,8.2-14.8,17.2-17.8,8.2-2.7,17.3-2.3,25.3-1.9h0a5.36,5.36,0,0,1,5.1,5.6,5.26,5.26,0,0,1-1.8,3.7l-9,8.1c-6.5,5.9-13.1,11.2-20.9,11.6A1.08,1.08,0,0,1,753,446.4Z" transform="translate(0 0.02)"/><path class="cls-2" d="M725,455.1c-1.3-9.9-2.7-19.9-1.8-29.9.8-8.9,3.5-17.6,8.9-24.7a40.9,40.9,0,0,1,10.3-9.6c1-.7,2,1,1,1.7a38.76,38.76,0,0,0-15.1,18.6c-3.3,8.6-3.8,17.9-3.3,27,.3,5.5,1.1,11,1.8,16.4a1.09,1.09,0,0,1-.7,1.2,1,1,0,0,1-1.1-.7Z" transform="translate(0 0.02)"/><path class="cls-2" d="M721.3,460.7c6.4-11.6,13.8-24.5,27.1-28.6a31.49,31.49,0,0,1,11.4-1.2c1.2.1.9,2-.3,1.9a27.93,27.93,0,0,0-18.2,4.9,48.58,48.58,0,0,0-12.5,13.8c-2.1,3.2-3.9,6.6-5.8,9.9-.6,1.2-2.3.4-1.7-.7Z" transform="translate(0 0.02)"/><path class="cls-1" d="M718.4,460.6l6.5.1-39-208.2-6.5,1.2,10.2,54H656.8l10.2-54-6.5-1.2L621.8,460.7l6.1-.1,20.3-107.9H698ZM649.8,344.7l5.5-29h35.8l5.5,29Z" transform="translate(0 0.02)"/><path class="cls-1" d="M436.1,213.6V145.2c0-2,3.1-3.7,7-3.7s7,1.7,7,3.7v68.4c0,2-3.1,3.7-7,3.7S436.1,215.7,436.1,213.6Z" transform="translate(0 0.02)"/><path class="cls-1" d="M419.3,213.6V145.2c0-2,3.1-3.7,7-3.7s7,1.7,7,3.7v68.4c0,2-3.1,3.7-7,3.7S419.3,215.7,419.3,213.6Z" transform="translate(0 0.02)"/><path class="cls-1" d="M402.6,213.6V145.2c0-2,3.1-3.7,7-3.7s7,1.7,7,3.7v68.4c0,2-3.1,3.7-7,3.7S402.6,215.7,402.6,213.6Z" transform="translate(0 0.02)"/><path class="cls-1" d="M543.5,163.4a1.45,1.45,0,0,0-.7-1L490,127.6a3.51,3.51,0,0,0,1.9-1.7h0a4.07,4.07,0,0,0-1.5-5.5l-4.3-2.5a4.07,4.07,0,0,0-5.5,1.5,3.32,3.32,0,0,0-.5,1.6L442,95.9a23.1,23.1,0,0,0-14.3-13.2V71.6h-14V82.7a23,23,0,0,0-16,21.9v3h14a9,9,0,0,0,18,0h14v-3a20.87,20.87,0,0,0-.4-4.3l96.4,63.6-40,48.7h-.9c-3.2,0-6.3.1-9.2.2a2.62,2.62,0,0,0,.2-1.5,4,4,0,0,0-4.2-3.8l-5,.3a4,4,0,0,0-3.8,4.2,4.07,4.07,0,0,0,.5,1.8c-8.8.9-14.6,2.2-14.6,2.9,0,1.1,15.4.1,34.6,0a1.45,1.45,0,0,0,1.9.9,1.79,1.79,0,0,0,.7-.5l.4-.5c19.2.1,34.5,1.1,34.5,0s-13.6-3.5-31.2-3.9l39.6-48.1A1.8,1.8,0,0,0,543.5,163.4Z" transform="translate(0 0.02)"/><path class="cls-1" d="M544.9,461.1H421.7a9.39,9.39,0,0,1-9.4-9.4V249.5a8.45,8.45,0,0,0-8.4-8.4H115.7a8.45,8.45,0,0,0-8.4,8.4V451.7a9.39,9.39,0,0,1-9.4,9.4H93.7a9.39,9.39,0,0,1-9.4-9.4V238.6a22.53,22.53,0,0,1,22.5-22.5h425a22.53,22.53,0,0,1,22.5,22.5V451.7A9.39,9.39,0,0,1,544.9,461.1Z" transform="translate(0 0.02)"/><rect class="cls-3" x="412.8" y="268.62" width="141" height="6"/><rect class="cls-3" x="412.8" y="349.62" width="141" height="6"/><path class="cls-4" d="M296.1,215.1l-4.1-1.7-2.8-20.3h-37l-3,20.2-3.6,1.8a.93.93,0,0,0-.4,1.2.79.79,0,0,0,.8.5h49.8a.9.9,0,0,0,.9-.9A1,1,0,0,0,296.1,215.1Z" transform="translate(0 0.02)"/><path class="cls-1" d="M361.9,195.8H180.1a3.59,3.59,0,0,1-3.6-3.6V166.6h189v25.6A3.59,3.59,0,0,1,361.9,195.8Z" transform="translate(0 0.02)"/><path class="cls-5" d="M365.7,178.6H176.3V68.9a4.27,4.27,0,0,1,4.3-4.3H361.3a4.27,4.27,0,0,1,4.3,4.3V178.6Z" transform="translate(0 0.02)"/><path class="cls-6" d="M354.4,170.7H187.6a3.33,3.33,0,0,1-3.3-3.3V75.9a3.33,3.33,0,0,1,3.3-3.3H354.4a3.33,3.33,0,0,1,3.3,3.3v91.4A3.35,3.35,0,0,1,354.4,170.7Z" transform="translate(0 0.02)"/><path class="cls-7" d="M541.3,83a11,11,0,0,1,12.5,9.3,12.1,12.1,0,0,1,.1,1.9l36.6,14.1-16.6,11.8-32.2-15.2a11,11,0,0,1-9.9-12.1,11.14,11.14,0,0,1,9.5-9.8Z" transform="translate(0 0.02)"/><path class="cls-6" d="M674.3,76.1l5.9,11.2a32.52,32.52,0,0,1-10.4,18.2c-9,8-56.2,37.7-56.2,37.7L554,111.8l10.4-14.5,46.8,16.4h0a151.86,151.86,0,0,1,61.2-37.1Z" transform="translate(0 0.02)"/><ellipse class="cls-1" cx="668.7" cy="246.32" rx="48.8" ry="15.9"/><polygon class="cls-7" points="559.2 447.12 546.3 443.52 553.9 391.82 573 397.12 559.2 447.12"/><path class="cls-8" d="M559,460.6,517.3,449l.1-.5a17,17,0,0,1,20.8-11.8h0l25.5,7.1Z" transform="translate(0 0.02)"/><polygon class="cls-7" points="521.7 447.32 509.4 441.82 524.4 391.82 542.6 399.82 521.7 447.32"/><path class="cls-8" d="M519.5,460.6l-39.6-17.5.2-.5a16.82,16.82,0,0,1,22.2-8.6h0l24.2,10.7Z" transform="translate(0 0.02)"/><path class="cls-8" d="M706.6,207.5s6.5,20.2-33.5,45.7l-51.5,51.3-53.5,128-31.8-14.2,6.2-16.6,4.2-11.2,2.1-5.7,2.3-6.1,34-90.8,28.6-50,.8-27.1,7-19.1,51-18.1Z" transform="translate(0 0.02)"/><path class="cls-8" d="M680.6,208.5s6.5,20.2-33.5,45.7l-51.5,51.3-53.5,128-31.8-14.2,6.2-16.6,4.2-11.2,2.1-5.7,2.3-6.1,34-90.8,9.6-16.7a307.76,307.76,0,0,1,45.6-60.8l9.4-9.7,1-15,21.8-12.1Z" transform="translate(0 0.02)"/><path class="cls-5" d="M649.8,109.6l16-34,27.9-3.8s21.8,27.8,16.1,66.8c-2.1,14.6-3.9,29.2-4,42,0,3.4,2.9,4.9,3,8s-5.6,7.9-4,10a18.06,18.06,0,0,1,4,10c-2,4.7-62-20.8-87.2-17Z" transform="translate(0 0.02)"/><circle class="cls-7" cx="667.8" cy="41.82" r="25.3"/><path class="cls-8" d="M683.9,32.7c0,.7-.1,1.5-.2,2.5a13.28,13.28,0,0,0,2.2,7.7c1.4,2.4-.3,16.8-.3,16.8,41.4-28.8,8.7-57.8-4.1-55.2.3-3.7-10.2-2.2-10.2-2.2-4-6.2-12.7,2-12.7,2l1.7-2.8C653.6,3.2,647,24.1,647,24.1,649.2,33.1,684.2,29,683.9,32.7Z" transform="translate(0 0.02)"/><path class="cls-1" d="M523.5,123a230.31,230.31,0,0,0,33.3-62.2,6,6,0,0,0-2.8-7.2L505.4,27.5a6,6,0,0,0-8.6,3.8,141.63,141.63,0,0,1-31.1,58,5.76,5.76,0,0,0-1.4,5,5.91,5.91,0,0,0,3,4.2l48.6,26.1A6,6,0,0,0,523.5,123Z" transform="translate(0 0.02)"/><path class="cls-9" d="M520.1,120.5a1.73,1.73,0,0,1-2.2.5L469.3,94.9a1.59,1.59,0,0,1-.9-1.2,2.28,2.28,0,0,1,.4-1.6,145.64,145.64,0,0,0,32-59.7,1.55,1.55,0,0,1,1-1.2,1.58,1.58,0,0,1,1.5.1l48.7,26a1.82,1.82,0,0,1,.9,2.1A229.55,229.55,0,0,1,520.1,120.5Z" transform="translate(0 0.02)"/><path class="cls-3" d="M503.1,56l33.6,19.7c3.3,2,6.4-3.2,3-5.2L506.1,50.8c-3.3-2-6.3,3.2-3,5.2Z" transform="translate(0 0.02)"/><path class="cls-3" d="M497.1,67l33.6,19.7c3.3,2,6.4-3.2,3-5.2L500.1,61.8c-3.3-2-6.3,3.2-3,5.2Z" transform="translate(0 0.02)"/><path class="cls-3" d="M490.1,79l33.6,19.7c3.3,2,6.4-3.2,3-5.2L493.1,73.8c-3.3-2-6.3,3.2-3,5.2Z" transform="translate(0 0.02)"/><path class="cls-3" d="M483.1,89l33.6,19.7c3.3,2,6.4-3.2,3-5.2L486.1,83.8c-3.3-2-6.3,3.2-3,5.2Z" transform="translate(0 0.02)"/><path class="cls-3" d="M636.1,204.7,648.7,233a4.45,4.45,0,0,1-.3,4.2,4.55,4.55,0,0,1-4.5,2,2.92,2.92,0,0,1-.9-.2,4.52,4.52,0,0,1-2.5-2.4l-12.6-28.3a4.48,4.48,0,0,1,8.2-3.6Z" transform="translate(0 0.02)"/><path class="cls-5" d="M647.6,230.7l2.5,5.7,1.3,8.1a2.47,2.47,0,0,1-2,2.8,2.54,2.54,0,0,1-2.3-.9l-5.2-6.5-2.5-5.6Z" transform="translate(0 0.02)"/><path class="cls-5" d="M625,196.8l1.8,11.3a2.47,2.47,0,0,0,2.8,2,1.42,1.42,0,0,0,.6-.2l1.8-.8,3.5,7.8a1,1,0,0,0,1.8-.8l-3.5-7.8,1.8-.8a2.41,2.41,0,0,0,1.2-3.2,2.19,2.19,0,0,0-.3-.5l-7.2-8.9a2.41,2.41,0,0,0-3.4-.4A2.45,2.45,0,0,0,625,196.8Z" transform="translate(0 0.02)"/><path class="cls-7" d="M630.3,217.3a11,11,0,0,1,12.8-8.9,13.32,13.32,0,0,1,1.9.5l24.9-30.3,6,19.4-24.5,25.8a11.13,11.13,0,0,1-21.1-6.5Z" transform="translate(0 0.02)"/><path class="cls-6" d="M661.6,215.3l-11-15.8L681.7,158l-16-34.3,1.2-40.8,13.2-2.4.2.1A32.79,32.79,0,0,1,694.4,97c3.3,8.3,10.7,39.3,14.8,57a20.82,20.82,0,0,1-5.6,19.4Z" transform="translate(0 0.02)"/><path class="cls-10" d="M353.2,138.8a17.7,17.7,0,0,0-.1,2.3l-56,40.9-15.4-6.8L268.3,197l26.1,14.7a11.33,11.33,0,0,0,13.3-1.7l56.4-55.1a14.65,14.65,0,1,0-10.6-17.8c-.1.5-.2,1.1-.3,1.7Z" transform="translate(0 0.02)"/><path class="cls-11" d="M295.2,183.4l-16.4,27.2a6.35,6.35,0,0,1-8.6,2.2c-.3-.2-.5-.3-.8-.5L245,192.2a17.48,17.48,0,0,1,18.1-29.9l29.2,12.1a6.29,6.29,0,0,1,3.4,8.2,5.58,5.58,0,0,1-.5.8Z" transform="translate(0 0.02)"/><rect class="cls-1" x="225.2" y="367.22" width="32.1" height="53.1"/><rect class="cls-1" x="288.4" y="377.88" width="7.3" height="93" transform="translate(-223.1 427.78) rotate(-55.84)"/><rect class="cls-1" x="143.87" y="420.71" width="93" height="7.3" transform="matrix(0.83, -0.56, 0.56, 0.83, -205.43, 180.12)"/><circle class="cls-12" cx="330.5" cy="450.52" r="10.1"/><circle class="cls-1" cx="240.7" cy="450.52" r="10.1"/><circle class="cls-1" cx="151.9" cy="450.52" r="10.1"/><rect class="cls-1" x="237.1" y="398.32" width="7.3" height="52.2"/><rect class="cls-1" x="234.3" y="320.52" width="13.7" height="70.5"/><path class="cls-5" d="M201.8,331.5V315a11.39,11.39,0,0,1,11.4-11.4h61.4A11.39,11.39,0,0,1,286,315v16.5a11.39,11.39,0,0,1-11.4,11.4H213.2A11.39,11.39,0,0,1,201.8,331.5Z" transform="translate(0 0.02)"/><polygon class="cls-7" points="312.6 444.12 329.6 444.12 337.7 400.12 312.6 400.12 312.6 444.12"/><path class="cls-8" d="M308.3,460.6H363v-.7a21.25,21.25,0,0,0-21.3-21.3H308.3Z" transform="translate(0 0.02)"/><path class="cls-8" d="M338,416.8l33.8-75.9a27.81,27.81,0,0,0-12.2-35.7l-73.4-39.3-33.5-2.8-30.9-2.8-.2.4c-.3.5-6.9,12-2.4,24.5,3.4,9.5,12.3,17,26.3,22.1,32.8,12,70.7,22.3,85.5,26.2a5,5,0,0,1,3.1,2.4,5.26,5.26,0,0,1,.3,3.9L303,410.4a6.26,6.26,0,0,0,3.7,8,7.49,7.49,0,0,0,1.6.4l23.5,1.7h.6A6.08,6.08,0,0,0,338,416.8Z" transform="translate(0 0.02)"/><polygon class="cls-7" points="301.6 444.12 318.5 444.12 326.6 400.12 301.6 400.12 301.6 444.12"/><path class="cls-8" d="M297.2,460.6h54.7v-.7a21.25,21.25,0,0,0-21.3-21.3H297.2Z" transform="translate(0 0.02)"/><path class="cls-8" d="M325.6,421l33.8-75.9a27.81,27.81,0,0,0-12.2-35.7l-73.4-39.3-33.5-2.8-24.2-2.1v-.3c-.3.5-6.9,12-2.4,24.5,3.4,9.5,5.3,17,19.4,22.1,32.8,12,70.7,22.3,85.5,26.2a5,5,0,0,1,3.1,2.4,5.26,5.26,0,0,1,.3,3.9l-31.4,70.6a6.26,6.26,0,0,0,3.7,8,7.49,7.49,0,0,0,1.6.4l23.5,1.7h.6A6.36,6.36,0,0,0,325.6,421Z" transform="translate(0 0.02)"/><circle class="cls-7" cx="271.3" cy="86.42" r="34"/><path class="cls-1" d="M388.5,217a230.31,230.31,0,0,0,33.3-62.2,6,6,0,0,0-2.8-7.2l-48.6-26.1a6,6,0,0,0-8.6,3.8,141.63,141.63,0,0,1-31.1,58,5.76,5.76,0,0,0-1.4,5,5.91,5.91,0,0,0,3,4.2l48.6,26.1A6,6,0,0,0,388.5,217Z" transform="translate(0 0.02)"/><path class="cls-9" d="M385.1,214.5a1.73,1.73,0,0,1-2.2.5l-48.6-26.1a1.59,1.59,0,0,1-.9-1.2,2.28,2.28,0,0,1,.4-1.6,145.64,145.64,0,0,0,32-59.7,1.55,1.55,0,0,1,1-1.2,1.58,1.58,0,0,1,1.5.1l48.6,26.1a1.82,1.82,0,0,1,.9,2.1A227.35,227.35,0,0,1,385.1,214.5Z" transform="translate(0 0.02)"/><path class="cls-6" d="M368.1,150l33.6,19.7c3.3,2,6.4-3.2,3-5.2l-33.6-19.7c-3.3-2-6.3,3.2-3,5.2Z" transform="translate(0 0.02)"/><path class="cls-6" d="M362.1,161l33.6,19.7c3.3,2,6.4-3.2,3-5.2l-33.6-19.7c-3.3-2-6.3,3.2-3,5.2Z" transform="translate(0 0.02)"/><path class="cls-6" d="M357.4,171.9,387.9,190c3,1.8,6.3-1.9,3.3-3.7l-30.5-18.1C357.6,166.4,354.4,170.1,357.4,171.9Z" transform="translate(0 0.02)"/><path class="cls-6" d="M348.1,183l33.6,19.7c3.3,2,6.4-3.2,3-5.2l-33.6-19.7c-3.3-2-6.3,3.2-3,5.2Z" transform="translate(0 0.02)"/><path class="cls-3" d="M290.9,268.7l-67.3-.4v-.5c-1.3-33.8,2.8-64.3,12.6-93.5.1-1.1.3-2.3.4-3.4,1.7-13,3-23.4,15.4-27.2a10,10,0,0,1-1.8-4.7,8.49,8.49,0,0,1,2.1-6.3,8.07,8.07,0,0,1,5.8-2.8l23.9-.8a5.5,5.5,0,0,1,3.5,1.2,9.62,9.62,0,0,1,2.8,12.1,3.69,3.69,0,0,0-.4.9c.9,4.5,3.4,9.8,6,15.4,3.8,8,8.2,17.1,9.3,26.9a48.54,48.54,0,0,1-.7,15.7,30.18,30.18,0,0,0-.3,8.5c.2,4.2.4,8.1-1.9,11.9-.6,1-1.3,2.1-2.1,3.4l-3.3,7.9Z" transform="translate(0 0.02)"/><path class="cls-5" d="M189.9,315.9V178.5a16.94,16.94,0,0,1,16.9-16.9h4.7a16.94,16.94,0,0,1,16.9,16.9V316a16.94,16.94,0,0,1-16.9,16.9h-4.7A17,17,0,0,1,189.9,315.9Z" transform="translate(0 0.02)"/><path class="cls-10" d="M370.3,192.2a12.74,12.74,0,0,0-1.3,1.9l-69.2,5-9.5-13.9-22.9,11.6,14.4,26.3a11.07,11.07,0,0,0,12.2,5.5l77-17a14.71,14.71,0,1,0,.4-20.8A13.44,13.44,0,0,1,370.3,192.2Z" transform="translate(0 0.02)"/><path class="cls-6" d="M297.5,199.5,269.3,214a6.3,6.3,0,0,1-8.5-2.7c-.1-.3-.3-.6-.4-.9l-10.2-30a17.5,17.5,0,0,1,7.6-23.4c-12.5,6.4,13.6-11.8,23.5,7.6l18.4,25.7a6.28,6.28,0,0,1-1.5,8.8c-.1.1-.4.2-.7.4Z" transform="translate(0 0.02)"/><path class="cls-8" d="M255.9,119.4c-2,0-4.3-1-6.8-3a43.59,43.59,0,0,1-13.3-51c1.9-4.4,5.3-10.4,11.3-14,4.3-2.5,9.3-3.4,13.7-4.1,3.8-.6,7.7-1,11.5-1.3,4.5-.4,9.8-.6,14.5,1.2,3.5,1.3,6.5,3.7,9.4,6,1,.8,2,1.6,3.1,2.4a21,21,0,0,0,8.5,4.1,4.57,4.57,0,0,1,3.1,2.3,4.46,4.46,0,0,1,.3,3.9c-.4,1.3-.9,2.4,0,3.6a3.19,3.19,0,0,0,2.7,1.4,1.75,1.75,0,0,1,1.4.7,1.84,1.84,0,0,1,.2,1.6l-.1.3a2.26,2.26,0,0,1,1.3,3.9,21.72,21.72,0,0,1-10.9,5.7,22.1,22.1,0,0,1-8.5,0l-.5-.1.1-.5c-11.3-4-21.6,2.8-27.4,10.7l-.8-.5a2.51,2.51,0,0,0,.1-1.9,2.8,2.8,0,0,0-1.5-1.7,3.66,3.66,0,0,0-4.1.8,5.23,5.23,0,0,0-1.5,4.3A15.51,15.51,0,0,0,263,99a19.45,19.45,0,0,1,.8,2.2,18.24,18.24,0,0,1-1,13c-.9,1.9-2.5,4.2-5.1,5A5.84,5.84,0,0,1,255.9,119.4Z" transform="translate(0 0.02)"/><path class="cls-1" d="M808.5,462.6H1.2a1.2,1.2,0,0,1,0-2.4H808.5a1.16,1.16,0,0,1,1.2,1.2A1.29,1.29,0,0,1,808.5,462.6Z" transform="translate(0 0.02)"/></svg>